<svg aria-hidden="true" style="position: absolute; width: 0; height: 0; overflow: hidden;" version="1.1" xmlns="http://www.w3.org/2000/svg" xmlns:xlink="http://www.w3.org/1999/xlink">
<defs>
<symbol id="icon-download" viewBox="0 0 32 32">
<path d="M10.667 13.333c0-2.946 2.388-5.333 5.333-5.333s5.333 2.388 5.333 5.333v1.333h1.333c2.577 0 4.667 2.089 4.667 4.667s-2.089 4.667-4.667 4.667h-0.133c-0.736 0-1.333 0.597-1.333 1.333s0.597 1.333 1.333 1.333h0.133c4.050 0 7.333-3.283 7.333-7.333 0-3.628-2.634-6.64-6.094-7.229-0.591-3.835-3.906-6.771-7.906-6.771s-7.315 2.936-7.906 6.771c-3.46 0.589-6.094 3.601-6.094 7.229 0 4.050 3.283 7.333 7.333 7.333h0.133c0.736 0 1.333-0.597 1.333-1.333s-0.597-1.333-1.333-1.333h-0.133c-2.577 0-4.667-2.089-4.667-4.667s2.089-4.667 4.667-4.667h1.333v-1.333zM17.333 14.667c0-0.736-0.597-1.333-1.333-1.333s-1.333 0.597-1.333 1.333v7.448l-1.724-1.724c-0.521-0.521-1.365-0.521-1.886 0s-0.521 1.365 0 1.886l4 4c0.521 0.521 1.365 0.521 1.886 0l4-4c0.521-0.521 0.521-1.365 0-1.886s-1.365-0.521-1.886 0l-1.724 1.724v-7.448z"></path>
</symbol>
<symbol id="icon-comments" viewBox="0 0 32 32">
<path fill="#f9ebb2" style="fill: var(--color1, #f9ebb2)" d="M25 6h-23c-0.552 0-1 0.447-1 1v15c0 0.552 0.448 1 1 1h4c0.553 0 1 0.448 1 1 0 0 0 5.5 0 6 0 0.695 0.929 1.57 2 0.5 1-1 7-7 7-7s0.355-0.5 1.328-0.5c0.329 0 7.672 0 7.672 0 0.552 0 1-0.448 1-1v-15c0-0.553-0.448-1-1-1z"></path>
<path fill="#f9ebb2" style="fill: var(--color1, #f9ebb2)" d="M30 1h-22c-0.553 0-1 0.448-1 1v3h18c1.105 0 2 0.894 2 2v10h3c0.552 0 1-0.448 1-1v-14c0-0.552-0.448-1-1-1z"></path>
<path fill="#394240" style="fill: var(--color2, #394240)" d="M30 0h-22c-1.106 0-2 0.894-2 2v3h-4c-1.105 0-2 0.894-2 2v15c0 1.105 0.894 2 2 2h3.5c0.277 0 0.5 0.224 0.5 0.5v5.5c0 0.808 0.487 1.539 1.234 1.848 0.248 0.104 0.508 0.152 0.766 0.152 0.52 0 1.031-0.203 1.414-0.586l7.078-7.078c0 0 0.258-0.336 0.836-0.336s7.672 0 7.672 0c1.105 0 2-0.895 2-2v-4h3c1.105 0 2-0.895 2-2v-14c0-1.105-0.895-2-2-2zM26 22c0 0.552-0.448 1-1 1 0 0-7.343 0-7.672 0-0.974 0-1.328 0.5-1.328 0.5s-6 6-7 7c-1.071 1.070-2 0.195-2-0.5 0-0.5 0-6 0-6 0-0.552-0.447-1-1-1h-4c-0.552 0-1-0.448-1-1v-15c0-0.553 0.448-1 1-1h23c0.552 0 1 0.447 1 1v15zM31 16c0 0.552-0.448 1-1 1h-3v-10c0-1.106-0.895-2-2-2h-18v-3c0-0.552 0.447-1 1-1h22c0.552 0 1 0.448 1 1v14z"></path>
<path fill="#394240" style="fill: var(--color2, #394240)" d="M6.5 12h6.5c0.277 0 0.5-0.223 0.5-0.5s-0.223-0.5-0.5-0.5h-6.5c-0.277 0-0.5 0.223-0.5 0.5s0.223 0.5 0.5 0.5z"></path>
<path fill="#394240" style="fill: var(--color2, #394240)" d="M20.5 14h-14c-0.277 0-0.5 0.223-0.5 0.5s0.223 0.5 0.5 0.5h14c0.276 0 0.5-0.223 0.5-0.5s-0.224-0.5-0.5-0.5z"></path>
<path fill="#394240" style="fill: var(--color2, #394240)" d="M17 17h-10.5c-0.277 0-0.5 0.224-0.5 0.5s0.223 0.5 0.5 0.5h10.5c0.276 0 0.5-0.224 0.5-0.5s-0.224-0.5-0.5-0.5z"></path>
<path fill="#231f20" style="fill: var(--color3, #231f20)" opacity="0.15" d="M31 16c0 0.552-0.448 1-1 1h-3v-10c0-1.106-0.895-2-2-2h-18v-3c0-0.552 0.447-1 1-1h22c0.552 0 1 0.448 1 1v14z"></path>
</symbol>
<symbol id="icon-open-eye" viewBox="0 0 32 32">
<path d="M0 16q0.064 0.192 0.192 0.512t0.576 1.248 0.992 1.888 1.344 2.176 1.792 2.368 2.144 2.176 2.592 1.888 2.976 1.248 3.392 0.512q2.208 0 4.288-0.768t3.616-2.016 2.912-2.72 2.304-3.008 1.6-2.72 0.96-1.984l0.32-0.8q-0.064-0.16-0.192-0.48t-0.576-1.28-0.992-1.856-1.344-2.208-1.792-2.336-2.144-2.176-2.56-1.888-3.008-1.28-3.392-0.48q-2.208 0-4.288 0.768t-3.616 2.016-2.912 2.72-2.304 2.976-1.6 2.72-0.96 2.016zM6.016 16q0-2.72 1.344-5.024t3.616-3.616 5.024-1.344q2.048 0 3.872 0.8t3.2 2.112 2.144 3.2 0.8 3.872q0 2.72-1.344 5.024t-3.648 3.648-5.024 1.344q-2.016 0-3.872-0.8t-3.2-2.144-2.144-3.168-0.768-3.904zM10.016 16q0 2.496 1.728 4.256t4.256 1.76 4.256-1.76 1.76-4.256-1.76-4.224-4.256-1.76q-0.96 0-1.984 0.352v3.648h-3.648q-0.352 0.992-0.352 1.984z"></path>
</symbol>
<symbol id="icon-like" viewBox="0 0 32 32">
<path fill="#edb7ab" style="fill: var(--color4, #edb7ab)" d="M32 16c0 8.837-7.163 16-16 16s-16-7.163-16-16c0-8.837 7.163-16 16-16s16 7.163 16 16z"></path>
<path fill="#c6897f" style="fill: var(--color5, #c6897f)" d="M25.228 10.413l-15.199 12.055 9.171 9.211c6.942-1.409 12.25-7.312 12.759-14.54l-6.732-6.726z"></path>
<path fill="#c63c22" style="fill: var(--color6, #c63c22)" d="M26.667 14.056c-0.001-2.944-2.389-5.332-5.333-5.333-2.945-0.001-5.333 2.388-5.333 5.333 0-2.945-2.388-5.333-5.333-5.333s-5.333 2.388-5.333 5.333c0 7.111 10.667 12.611 10.667 12.611s10.67-5.537 10.667-12.611z"></path>
</symbol>
</defs>
</svg>
